<svg width="69" height="69" viewBox="0 0 69 69" fill="none" xmlns="http://www.w3.org/2000/svg">
<path d="M13.0774 22.5082C13.0774 21.907 13.0774 21.6065 13.1632 21.3231C13.249 21.0396 13.4157 20.7895 13.7492 20.2894L17.5691 14.5595C18.1504 13.6876 18.441 13.2516 18.8832 13.015C19.3254 12.7783 19.8494 12.7783 20.8973 12.7783H47.8512C48.8992 12.7783 49.4231 12.7783 49.8653 13.015C50.3075 13.2516 50.5982 13.6876 51.1794 14.5595L54.9993 20.2894C55.3328 20.7895 55.4995 21.0396 55.5853 21.3231C55.6711 21.6065 55.6711 21.907 55.6711 22.5082V51.3721C55.6711 53.2577 55.6711 54.2005 55.0854 54.7863C54.4996 55.3721 53.5568 55.3721 51.6711 55.3721H17.0774C15.1918 55.3721 14.249 55.3721 13.6632 54.7863C13.0774 54.2005 13.0774 53.2577 13.0774 51.3721V22.5082Z" stroke="#222222" stroke-width="2"/>
<path d="M13.0774 27.2598H55.6711" stroke="#222222" stroke-width="2" stroke-linecap="round"/>
<path d="M27.2754 27.4098C27.2754 27.3269 27.3425 27.2598 27.4254 27.2598H41.3233C41.4061 27.2598 41.4733 27.3269 41.4733 27.4098V40.6629C41.4733 41.0127 41.0917 41.2287 40.7918 41.0488L34.503 37.2755C34.4238 37.228 34.3249 37.228 34.2457 37.2755L27.9569 41.0488C27.657 41.2287 27.2754 41.0127 27.2754 40.6629V27.4098Z" stroke="#222222" stroke-width="2"/>
</svg>
