<svg width="69" height="69" viewBox="0 0 69 69" fill="none" xmlns="http://www.w3.org/2000/svg">
<rect x="9.04065" y="17.0376" width="51.1125" height="42.5938" rx="2" stroke="#222222" stroke-width="2"/>
<path d="M9.04065 21.0376C9.04065 19.152 9.04065 18.2092 9.62644 17.6234C10.2122 17.0376 11.155 17.0376 13.0406 17.0376H56.1532C58.0388 17.0376 58.9816 17.0376 59.5674 17.6234C60.1532 18.2092 60.1532 19.152 60.1532 21.0376V28.3959H9.04065V21.0376Z" stroke="black" stroke-width="2"/>
<path d="M20.3989 8.51855L20.3989 17.0373" stroke="#222222" stroke-width="2" stroke-linecap="round"/>
<path d="M48.7948 8.51855L48.7948 17.0373" stroke="#222222" stroke-width="2" stroke-linecap="round"/>
<rect x="20.3989" y="34.0752" width="11.3583" height="5.67917" rx="0.5" fill="#222222"/>
<rect x="20.3989" y="45.4331" width="11.3583" height="5.67917" rx="0.5" fill="#222222"/>
<rect x="37.4364" y="34.0752" width="11.3583" height="5.67917" rx="0.5" fill="#222222"/>
<rect x="37.4364" y="45.4331" width="11.3583" height="5.67917" rx="0.5" fill="#222222"/>
</svg>
