<svg width="67" height="69" viewBox="0 0 67 69" fill="none" xmlns="http://www.w3.org/2000/svg">
<path d="M11.7583 27.4697C11.493 26.4795 11.3603 25.9844 11.4551 25.5551C11.535 25.1934 11.7245 24.8651 11.9979 24.615C12.3223 24.3183 12.8173 24.1857 13.8075 23.9204L43.1798 16.0501C44.1699 15.7848 44.665 15.6521 45.0943 15.7469C45.456 15.8268 45.7844 16.0163 46.0344 16.2897C46.3311 16.614 46.4638 17.1091 46.7291 18.0993L51.8434 37.186C52.1087 38.1762 52.2413 38.6713 52.1466 39.1005C52.0667 39.4623 51.8771 39.7906 51.6038 40.0406C51.2794 40.3374 50.7843 40.47 49.7942 40.7353L20.4219 48.6056C19.4317 48.8709 18.9367 49.0036 18.5074 48.9088C18.1456 48.8289 17.8173 48.6394 17.5673 48.366C17.2705 48.0417 17.1379 47.5466 16.8726 46.5564L11.7583 27.4697Z" stroke="#222222" stroke-width="2"/>
<path d="M13.2131 32.8989L48.1839 23.5285" stroke="#222222" stroke-width="1.5" stroke-linecap="round"/>
<path d="M22.5872 33.7789C22.5872 32.7538 22.5872 32.2412 22.7898 31.8511C22.9606 31.5223 23.2286 31.2543 23.5574 31.0835C23.9475 30.8809 24.4601 30.8809 25.4852 30.8809H55.8936C56.9187 30.8809 57.4312 30.8809 57.8213 31.0835C58.1501 31.2543 58.4182 31.5223 58.5889 31.8511C58.7916 32.2412 58.7916 32.7538 58.7916 33.7789V53.5389C58.7916 54.564 58.7916 55.0766 58.5889 55.4667C58.4182 55.7954 58.1501 56.0635 57.8213 56.2343C57.4312 56.4369 56.9187 56.4369 55.8936 56.4369H25.4852C24.4601 56.4369 23.9475 56.4369 23.5574 56.2343C23.2286 56.0635 22.9606 55.7954 22.7898 55.4667C22.5872 55.0766 22.5872 54.564 22.5872 53.5389V33.7789Z" fill="white" stroke="#222222" stroke-width="2"/>
<path d="M22.5872 39.3994L58.7916 39.3994" stroke="#222222" stroke-width="1.5" stroke-linecap="round"/>
<circle cx="30.041" cy="48.9832" r="2.12967" fill="#222222"/>
<circle cx="32.1707" cy="48.9832" r="2.12967" fill="#222222"/>
</svg>
